# xmcd
#
# Track frame offsets: 
#        150
#        14795
#        29102
#        46243
#        61936
#        76720
#        91409
#        105847
#        120624
#        135715
#        152835
#        168363
#
# Disc length: 2449 seconds
#
# Revision: 0
# Processed by: cddbd v1.5.2PL0 Copyright (c) Steve Scherf et al.
# Submitted via: ExactAudioCopyFreeDBPlugin 1.0
#
DISCID=93098f0c
DTITLE=Laura Wilde - Fang deine Träume ein
DYEAR=2011
DGENRE=Schlager
TTITLE0=Alles aus Liebe
TTITLE1=Ich sehe was, was du nicht siehst
TTITLE2=Hat dich der Himmel geschickt
TTITLE3=Wo hast du denn Küssen gelernt
TTITLE4=Zwei Herzen im Sommer
TTITLE5=Süße Träume in der Nacht
TTITLE6=Ich stell' mein Herz auf Sommerzeit
TTITLE7=Fang deine Träume ein
TTITLE8=Einfach sexy
TTITLE9=Ungarisches Blut
TTITLE10=Ich will mich verlieben
TTITLE11=Ich vermiss' dich
EXTD=
EXTT0=
EXTT1=
EXTT2=
EXTT3=
EXTT4=
EXTT5=
EXTT6=
EXTT7=
EXTT8=
EXTT9=
EXTT10=
EXTT11=
PLAYORDER=
